<svg id="图层_1" data-name="图层 1" xmlns="http://www.w3.org/2000/svg" viewBox="0 0 86 86"><defs><style>.cls-1{fill:#29ac3e;}.cls-2{fill:#fff;}</style></defs><title>后台logo</title><polygon class="cls-1" points="20.88 60.87 31.36 54.82 31.36 45.01 20.88 51.06 20.88 60.87"/><path class="cls-1" d="M43,1A41.84,41.84,0,0,0,14.93,11.76H41.2a.15.15,0,0,1,.15.15v6.62a.15.15,0,0,1-.15.15h.15V51.77C46.27,46.32,52.45,43,58.74,43c8.93,0,17.64,6.61,22.81,16.66A42,42,0,0,0,43,1ZM58.74,39.44A13.83,13.83,0,1,1,72.57,25.62,13.83,13.83,0,0,1,58.74,39.44Z"/><path class="cls-1" d="M9,18.3A42,42,0,0,0,9,67.71l1.85-1.07V18.69h-.25A3.45,3.45,0,0,1,9,18.3Z"/><path class="cls-1" d="M58.74,49.56c-7.1,0-15,11.19-17.46,27a4.86,4.86,0,0,1-3.87,4l-.07,0L37,80.6l-.13,0-.45,0h-.55a4.87,4.87,0,0,1-4.48-4.83s0-.09,0-.14v-11L14.83,74.15a42,42,0,0,0,60.05-3.81C71.57,57.89,64.87,49.56,58.74,49.56Z"/><polygon class="cls-1" points="20.88 43.88 31.36 37.83 31.36 29.56 20.88 35.61 20.88 43.88"/><polygon class="cls-1" points="31.36 18.69 20.88 18.69 20.88 28.43 31.36 22.38 31.36 18.69"/><circle class="cls-2" cx="58.74" cy="25.62" r="13.83"/><path class="cls-2" d="M58.74,43c-6.29,0-12.47,3.28-17.38,8.73V18.69H41.2a.15.15,0,0,0,.15-.15V11.92a.15.15,0,0,0-.15-.15H14.93A42.24,42.24,0,0,0,9,18.3a3.45,3.45,0,0,0,1.6.39h.25V66.64L9,67.71a42.25,42.25,0,0,0,5.79,6.44L31.36,64.6v11s0,.09,0,.14a4.87,4.87,0,0,0,4.48,4.83h.55l.45,0,.13,0,.37-.06.07,0a4.86,4.86,0,0,0,3.87-4c2.48-15.83,10.36-27,17.46-27,6.13,0,12.83,8.33,16.14,20.78A42,42,0,0,0,81.55,59.7C76.38,49.65,67.67,43,58.74,43ZM31.36,54.82,20.88,60.87V51.06L31.36,45Zm0-17L20.88,43.88V35.61l10.48-6.05Zm0-15.45L20.88,28.43V18.69H31.36Z"/></svg>